<svg xmlns="http://www.w3.org/2000/svg" viewBox="80 90 500 390">
  <defs>
    <linearGradient id="cg" x1="0%" y1="0%" x2="100%" y2="100%">
      <stop offset="0%" stop-color="#60aaff"/>
      <stop offset="50%" stop-color="#7c6af7"/>
      <stop offset="100%" stop-color="#9b4dca"/>
    </linearGradient>
    <linearGradient id="bgl" x1="0" y1="0" x2="0" y2="1">
      <stop offset="0%" stop-color="#50e0ff"/>
      <stop offset="100%" stop-color="#6090ff"/>
    </linearGradient>
    <linearGradient id="bgr" x1="0" y1="0" x2="0" y2="1">
      <stop offset="0%" stop-color="#d060ff"/>
      <stop offset="100%" stop-color="#ff60a0"/>
    </linearGradient>
    <radialGradient id="sg1" cx="50%" cy="50%" r="50%">
      <stop offset="0%" stop-color="#ffffff" stop-opacity="1"/>
      <stop offset="40%" stop-color="#c0d4ff" stop-opacity="0.6"/>
      <stop offset="100%" stop-color="#6090ff" stop-opacity="0"/>
    </radialGradient>
    <radialGradient id="sg2" cx="50%" cy="50%" r="50%">
      <stop offset="0%" stop-color="#ffffff" stop-opacity="1"/>
      <stop offset="40%" stop-color="#ffb0e0" stop-opacity="0.6"/>
      <stop offset="100%" stop-color="#c060ff" stop-opacity="0"/>
    </radialGradient>
    <filter id="glow">
      <feGaussianBlur stdDeviation="2.5" result="blur"/>
      <feMerge><feMergeNode in="blur"/><feMergeNode in="SourceGraphic"/></feMerge>
    </filter>
  </defs>

  <!-- crescent -->
  <path fill="none" stroke="url(#cg)" stroke-width="13" stroke-linecap="round" d="M 430,102 A 190,190 0 1 0 430,458"/>

  <!-- constellation lines -->
  <g fill="none" stroke="#a0b4e0" stroke-width="1.2" opacity="0.7">
    <line x1="375" y1="150" x2="300" y2="248"/>
    <line x1="300" y1="248" x2="288" y2="342"/>
    <line x1="300" y1="248" x2="368" y2="293"/>
    <line x1="368" y1="293" x2="468" y2="248"/>
    <line x1="368" y1="293" x2="358" y2="384"/>
    <line x1="358" y1="384" x2="330" y2="406"/>
  </g>

  <!-- stars -->
  <circle cx="375" cy="150" r="20" fill="url(#sg1)" opacity="0.45"/>
  <circle cx="375" cy="150" r="9" fill="url(#sg1)" opacity="0.7"/>
  <circle cx="375" cy="150" r="3" fill="#fff" filter="url(#glow)"/>
  <polygon points="375,138 377,148 386,150 377,152 375,162 373,152 364,150 373,148" fill="#fff" opacity="0.9"/>

  <circle cx="468" cy="248" r="20" fill="url(#sg2)" opacity="0.45"/>
  <circle cx="468" cy="248" r="9" fill="url(#sg2)" opacity="0.7"/>
  <circle cx="468" cy="248" r="3" fill="#fff" filter="url(#glow)"/>
  <polygon points="468,237 470,246 479,248 470,250 468,259 466,250 457,248 466,246" fill="#fff" opacity="0.85"/>

  <circle cx="300" cy="248" r="10" fill="url(#sg1)" opacity="0.35"/>
  <circle cx="300" cy="248" r="2.2" fill="#fff"/>
  <circle cx="368" cy="293" r="7" fill="url(#sg1)" opacity="0.3"/>
  <circle cx="368" cy="293" r="1.8" fill="#fff"/>
  <circle cx="288" cy="342" r="5" fill="url(#sg1)" opacity="0.25"/>
  <circle cx="288" cy="342" r="1.4" fill="#fff"/>
  <circle cx="358" cy="384" r="4" fill="url(#sg1)" opacity="0.2"/>
  <circle cx="358" cy="384" r="1.2" fill="#fff"/>
  <circle cx="330" cy="406" r="3" fill="url(#sg1)" opacity="0.18"/>
  <circle cx="330" cy="406" r="1" fill="#fff"/>

  <!-- waveform bars left (cyan) -->
  <g fill="url(#bgl)" opacity="0.88">
    <rect x="100" y="272" width="5" height="12" rx="2.5"/>
    <rect x="110" y="268" width="5" height="20" rx="2.5"/>
    <rect x="120" y="263" width="5" height="30" rx="2.5"/>
    <rect x="130" y="260" width="5" height="36" rx="2.5"/>
    <rect x="140" y="265" width="5" height="26" rx="2.5"/>
    <rect x="150" y="256" width="5" height="44" rx="2.5"/>
    <rect x="160" y="260" width="5" height="36" rx="2.5"/>
    <rect x="170" y="252" width="5" height="52" rx="2.5"/>
    <rect x="180" y="256" width="5" height="44" rx="2.5"/>
    <rect x="190" y="248" width="5" height="60" rx="2.5"/>
    <rect x="200" y="252" width="5" height="52" rx="2.5"/>
    <rect x="210" y="244" width="5" height="68" rx="2.5"/>
    <rect x="220" y="248" width="5" height="56" rx="2.5"/>
    <rect x="230" y="240" width="5" height="76" rx="2.5"/>
    <rect x="240" y="244" width="5" height="64" rx="2.5"/>
    <rect x="250" y="236" width="5" height="84" rx="2.5"/>
    <rect x="260" y="240" width="5" height="68" rx="2.5"/>
    <rect x="270" y="234" width="5" height="88" rx="2.5"/>
    <rect x="280" y="238" width="5" height="72" rx="2.5"/>
    <rect x="290" y="232" width="5" height="92" rx="2.5"/>
    <rect x="300" y="236" width="5" height="76" rx="2.5"/>
    <rect x="310" y="230" width="5" height="96" rx="2.5"/>
    <rect x="320" y="234" width="5" height="80" rx="2.5"/>
  </g>

  <!-- waveform bars right (pink) -->
  <g fill="url(#bgr)" opacity="0.88">
    <rect x="333" y="230" width="5" height="96" rx="2.5"/>
    <rect x="343" y="234" width="5" height="80" rx="2.5"/>
    <rect x="353" y="232" width="5" height="88" rx="2.5"/>
    <rect x="363" y="236" width="5" height="72" rx="2.5"/>
    <rect x="373" y="228" width="5" height="96" rx="2.5"/>
    <rect x="383" y="234" width="5" height="76" rx="2.5"/>
    <rect x="393" y="240" width="5" height="64" rx="2.5"/>
    <rect x="403" y="236" width="5" height="80" rx="2.5"/>
    <rect x="413" y="244" width="5" height="60" rx="2.5"/>
    <rect x="423" y="240" width="5" height="72" rx="2.5"/>
    <rect x="433" y="248" width="5" height="52" rx="2.5"/>
    <rect x="443" y="244" width="5" height="62" rx="2.5"/>
    <rect x="453" y="252" width="5" height="44" rx="2.5"/>
    <rect x="463" y="256" width="5" height="36" rx="2.5"/>
    <rect x="473" y="260" width="5" height="28" rx="2.5"/>
    <rect x="483" y="264" width="5" height="38" rx="2.5"/>
    <rect x="493" y="260" width="5" height="30" rx="2.5"/>
    <rect x="503" y="265" width="5" height="22" rx="2.5"/>
    <rect x="513" y="268" width="5" height="28" rx="2.5"/>
    <rect x="523" y="264" width="5" height="20" rx="2.5"/>
    <rect x="533" y="268" width="5" height="16" rx="2.5"/>
    <rect x="543" y="271" width="5" height="14" rx="2.5"/>
    <rect x="553" y="273" width="5" height="10" rx="2.5"/>
    <rect x="563" y="274" width="5" height="8" rx="2.5"/>
  </g>

  <!-- dot caps -->
  <g fill="#80d8ff" opacity="0.75">
    <circle cx="312" cy="227" r="3"/>
    <circle cx="292" cy="229" r="2.5"/>
    <circle cx="252" cy="233" r="2.5"/>
    <circle cx="172" cy="249" r="2"/>
    <circle cx="102" cy="269" r="1.8"/>
  </g>
  <g fill="#ff80c0" opacity="0.75">
    <circle cx="335" cy="227" r="3"/>
    <circle cx="375" cy="225" r="2.5"/>
    <circle cx="413" cy="241" r="2.5"/>
    <circle cx="453" cy="249" r="2"/>
    <circle cx="565" cy="271" r="1.8"/>
  </g>

  <!-- center divider -->
  <line x1="328" y1="228" x2="328" y2="328" stroke="#a0a0ff" stroke-width="1.8" opacity="0.35"/>
</svg>
